<svg xmlns="http://www.w3.org/2000/svg" width="256" height="256" viewBox="0 0 67.733 67.733">
  <defs>
    <filter id="a" x="-.072" y="-.072" width="1.144" height="1.144"
    color-interpolation-filters="sRGB">
      <feGaussianBlur stdDeviation="3.514" />
    </filter>
  </defs>
  <g transform="translate(0 63.5) scale(.26458)">
    <rect x="8.145" y="-232.87" width="240" height="240" rx="32"
    ry="32" fill="#2394da" fill-opacity=".939" />
    <path transform="matrix(2 0 0 2 .145 -240.87)"
    d="M117.139 6.861A15.94 15.94 0 01120 16v88c0 8.864-7.136 16-16 16H16a15.94 15.94 0 01-9.139-2.861A15.95 15.95 0 0020 124h88c8.864 0 16-7.136 16-16V20a15.95 15.95 0 00-6.861-13.139z"
    filter="url(#a)" opacity=".36" />
  </g>
  <g font-family="Noto Sans" font-weight="700" letter-spacing="0"
  stroke-width=".529" word-spacing="0">
    <text x="6.668" y="9.078"
    fill="#00f200" font-size="5.644" style="line-height:1.25">
      <tspan x="6.668" y="9.078">1</tspan>
    </text>
    <text x="9.231" y="15.182"
    fill="#00f200" font-size="11.289" style="line-height:1.25">
      <tspan x="9.231" y="15.182">H</tspan>
    </text>
    <text x="42.119" y="9.078"
    fill="#bbf" font-size="5.644" style="line-height:1.25">
      <tspan x="42.119" y="9.078">2</tspan>
    </text>
    <text x="45.172" y="15.22"
    fill="#bbf" font-size="11.289" style="line-height:1.25">
      <tspan x="45.172" y="15.22">He</tspan>
    </text>
    <text x="3.267" y="54.305"
    fill="#f88" font-size="5.644" style="line-height:1.25">
      <tspan x="3.267" y="54.305">87</tspan>
    </text>
    <text x="9.306" y="60.215"
    fill="#f88" font-size="11.289" style="line-height:1.25">
      <tspan x="9.306" y="60.215">Fr</tspan>
    </text>
    <text x="35.963" y="54.212"
    fill="#bbf" font-size="5.644" style="line-height:1.25">
      <tspan x="35.963" y="54.212">118</tspan>
    </text>
    <text x="45.875" y="60.354"
    fill="#bbf" font-size="11.289" style="line-height:1.25">
      <tspan x="45.875" y="60.354">Og</tspan>
    </text>
  </g>
  <text x="3.682" y="43.391" fill="#ffffac" font-family="Noto Sans"
  font-size="25.94" font-weight="700" letter-spacing="0"
  stroke-width=".695" word-spacing="0" style="line-height:1.25">
    <tspan x="3.682" y="43.391" font-size="29.645">PTE</tspan>
  </text>
</svg>
